<svg width="594" height="341" viewBox="0 0 594 341" fill="none" xmlns="http://www.w3.org/2000/svg">
<circle cx="297" cy="163" r="144" stroke="#E9E0E0" stroke-width="8"/>
<circle cx="297" cy="163" r="135" fill="#ABF1BA"/>
<path d="M219.188 121.695C218.172 117.867 219.227 115.953 222.352 115.953H234.656C237.469 115.953 239.227 117.477 239.93 120.523L257.156 197.867C257.703 200.133 258.523 203.688 259.617 208.531C260.789 213.375 261.609 216.93 262.078 219.195H262.547C262.938 217.008 263.602 213.727 264.539 209.352C265.555 204.977 266.492 201.148 267.352 197.867L287.977 120.523C288.758 117.477 290.516 115.953 293.25 115.953H303.797C306.531 115.953 308.289 117.477 309.07 120.523L329.695 197.867C330.555 201.148 331.453 204.977 332.391 209.352C333.406 213.727 334.109 217.008 334.5 219.195H334.969C335.438 216.93 336.219 213.375 337.312 208.531C338.484 203.688 339.344 200.133 339.891 197.867L357.117 120.523C357.82 117.477 359.578 115.953 362.391 115.953H374.695C377.82 115.953 378.875 117.867 377.859 121.695L348.797 231.852C347.547 236.617 345.438 239 342.469 239H328.406C325.438 239 323.328 236.617 322.078 231.852L302.156 154.391C300.75 148.922 299.852 145.094 299.461 142.906C299.148 140.719 298.875 138.648 298.641 136.695H298.406C298.172 138.648 297.859 140.719 297.469 142.906C297.156 145.094 296.297 148.922 294.891 154.391L274.969 231.852C273.719 236.617 271.609 239 268.641 239H254.578C251.609 239 249.5 236.617 248.25 231.852L219.188 121.695Z" fill="#252422"/>
<path d="M52.8085 234.445L34.3831 309.109L108 288" stroke="#E9E0E0" stroke-width="8"/>
<path d="M486.609 300.322L564.512 325.183L545.729 243.827" stroke="#E9E0E0" stroke-width="8"/>
<path d="M245.5 29.3149C222.902 18.5808 197.952 13.7504 172.98 15.2751C148.009 16.7998 123.831 24.6299 102.707 38.0337C81.5824 51.4375 64.2005 69.9775 52.1854 91.9214C40.1702 113.865 33.9138 138.497 34.0009 163.515C34.0879 188.533 40.5155 213.12 52.6831 234.98M103.578 288.515C124.795 301.772 149.027 309.433 174.008 310.784C198.99 312.135 223.906 307.131 246.429 296.24" stroke="#E9E0E0" stroke-width="8"/>
<path d="M346.085 298.792C368.057 311.232 392.847 317.843 418.096 317.997C443.344 318.152 468.213 311.844 490.336 299.674M544.487 248.467C557.873 227.059 565.56 202.582 566.817 177.363C568.073 152.145 562.857 127.025 551.664 104.392C540.471 81.7595 523.674 62.3665 502.87 48.058C482.066 33.7495 457.948 25.0013 432.808 22.6456C407.669 20.2898 382.345 24.4048 359.245 34.5991" stroke="#E9E0E0" stroke-width="8"/>
<rect width="594" height="341" fill="white" fill-opacity="0.12"/>
</svg>
